<?xml version="1.0" encoding="UTF-8" standalone="no"?>
<!DOCTYPE svg PUBLIC "-//W3C//DTD SVG 1.1//EN" "http://www.w3.org/Graphics/SVG/1.1/DTD/svg11.dtd">
<svg width="100%" height="100%" viewBox="0 0 1000 1000" version="1.1" xmlns="http://www.w3.org/2000/svg" xmlns:xlink="http://www.w3.org/1999/xlink" xml:space="preserve" xmlns:serif="http://www.serif.com/" style="fill-rule:evenodd;clip-rule:evenodd;stroke-linejoin:round;stroke-miterlimit:2;">
    <g transform="matrix(9.47812,0,0,9.47812,-3809.89,-2910.02)">
        <g transform="matrix(50,0,0,50,468.624,373.402)">
        </g>
        <text x="438.619px" y="373.402px" style="font-family:'CourierNewPS-BoldMT', 'Courier New';font-weight:700;font-size:50px;fill:rgb(66,66,66);">d</text>
    </g>
    <g transform="matrix(1,0,0,1.30978,0.5,-181.783)">
        <path d="M649,689.071L649,942.929C649,974.428 615.506,1000 574.25,1000L424.75,1000C383.494,1000 350,974.428 350,942.929L350,689.071C350,657.572 383.494,632 424.75,632L574.25,632C615.506,632 649,657.572 649,689.071Z" style="fill:rgb(66,66,66);"/>
    </g>
    <g id="Arm">
        <g transform="matrix(0.902137,0.351807,-0.38971,0.999332,428.909,-327.665)">
            <path d="M781.704,733.099C791.504,807.318 799,880.438 799,930.459C799,955.594 770.995,976 736.5,976C702.005,976 674,955.594 674,930.459C674,880.755 681.401,808.246 691.11,734.513L781.704,733.099Z" style="fill:rgb(66,66,66);"/>
        </g>
        <g transform="matrix(0.827967,-1.17335,0.890961,0.628703,-592.647,1050.39)">
            <path d="M709,714.57L709,880.43C709,899.51 697.238,915 682.75,915L630.25,915C615.762,915 604,899.51 604,880.43L604,714.57C604,695.49 615.762,680 630.25,680L682.75,680C697.238,680 709,695.49 709,714.57Z" style="fill:rgb(66,66,66);"/>
        </g>
    </g>
    <g id="Arm1" serif:id="Arm" transform="matrix(-1,0,0,1,1000,1.13687e-13)">
        <g transform="matrix(0.902137,0.351807,-0.38971,0.999332,428.909,-327.665)">
            <path d="M781.704,733.099C791.504,807.318 799,880.438 799,930.459C799,955.594 770.995,976 736.5,976C702.005,976 674,955.594 674,930.459C674,880.755 681.401,808.246 691.11,734.513L781.704,733.099Z" style="fill:rgb(66,66,66);"/>
        </g>
        <g transform="matrix(0.827967,-1.17335,0.890961,0.628703,-592.647,1050.39)">
            <path d="M709,714.57L709,880.43C709,899.51 697.238,915 682.75,915L630.25,915C615.762,915 604,899.51 604,880.43L604,714.57C604,695.49 615.762,680 630.25,680L682.75,680C697.238,680 709,695.49 709,714.57Z" style="fill:rgb(66,66,66);"/>
        </g>
    </g>
    <g transform="matrix(0.950222,0.311574,-0.311574,0.950222,271.658,-134.238)">
        <path d="M725.982,592.161L726,592C726,592 719.869,565.793 746,556C772.131,546.207 795.129,529.102 802,528C808.871,526.898 819.084,531.034 818,535C816.916,538.966 860.553,506.269 874,484C887.447,461.731 906.764,498.021 831,561C807.41,580.609 796.897,591.074 794.53,595.866L725.982,592.161Z" style="fill:rgb(66,66,66);"/>
    </g>
    <g transform="matrix(-0.950222,0.311574,0.311574,0.950222,728.342,-134.238)">
        <path d="M725.982,592.161L726,592C726,592 719.869,565.793 746,556C772.131,546.207 795.129,529.102 802,528C808.871,526.898 819.084,531.034 818,535C816.916,538.966 860.553,506.269 874,484C887.447,461.731 906.764,498.021 831,561C807.41,580.609 796.897,591.074 794.53,595.866L725.982,592.161Z" style="fill:rgb(66,66,66);"/>
    </g>
</svg>
